{
  "asset": {
    "generator": "Khronos glTF Blender I/O v1.5.17",
    "version": "2.0"
  },
  "scene": 0,
  "scenes": [
    {
      "name": "Scene",
      "nodes": [
        0
      ]
    }
  ],
  "nodes": [
    {
      "mesh": 0,
      "name": "sphere_gltf"
    }
  ],
  "materials": [
    {
      "doubleSided": true,
      "name": "bark_brown_02",
      "normalTexture": {
        "index": 0
      },
      "pbrMetallicRoughness": {
        "baseColorTexture": {
          "index": 1
        },
        "metallicFactor": 0,
        "metallicRoughnessTexture": {
          "index": 2
        }
      }
    }
  ],
  "meshes": [
    {
      "name": "Sphere.001",
      "primitives": [
        {
          "attributes": {
            "POSITION": 0,
            "NORMAL": 1,
            "TEXCOORD_0": 2
          },
          "indices": 3,
          "material": 0
        }
      ]
    }
  ],
  "textures": [
    {
      "sampler": 0,
      "source": 0
    },
    {
      "sampler": 0,
      "source": 1
    },
    {
      "sampler": 0,
      "source": 2
    }
  ],
  "images": [
    {
      "mimeType": "image/jpeg",
      "name": "bark_brown_02_nor_gl_4k",
      "uri": "textures/bark_brown_02_nor_gl_2k.jpg"
    },
    {
      "mimeType": "image/jpeg",
      "name": "bark_brown_02_diff_4k",
      "uri": "textures/bark_brown_02_diff_2k.jpg"
    },
    {
      "mimeType": "image/jpeg",
      "name": "bark_brown_02_rough_4k",
      "uri": "textures/bark_brown_02_rough_2k.jpg"
    }
  ],
  "accessors": [
    {
      "bufferView": 0,
      "componentType": 5126,
      "count": 53872,
      "max": [
        0.49736288189888,
        0.5004289150238037,
        0.49576741456985474
      ],
      "min": [
        -0.4973627030849457,
        -0.5008036494255066,
        -0.49576613306999207
      ],
      "type": "VEC3"
    },
    {
      "bufferView": 1,
      "componentType": 5126,
      "count": 53872,
      "type": "VEC3"
    },
    {
      "bufferView": 2,
      "componentType": 5126,
      "count": 53872,
      "type": "VEC2"
    },
    {
      "bufferView": 3,
      "componentType": 5123,
      "count": 322170,
      "type": "SCALAR"
    }
  ],
  "bufferViews": [
    {
      "buffer": 0,
      "byteLength": 646464,
      "byteOffset": 0
    },
    {
      "buffer": 0,
      "byteLength": 646464,
      "byteOffset": 646464
    },
    {
      "buffer": 0,
      "byteLength": 430976,
      "byteOffset": 1292928
    },
    {
      "buffer": 0,
      "byteLength": 644340,
      "byteOffset": 1723904
    }
  ],
  "samplers": [
    {
      "magFilter": 9729,
      "minFilter": 9987
    }
  ],
  "buffers": [
    {
      "byteLength": 2368244,
      "uri": "bark_brown_02.bin"
    }
  ]
}